<svg width="24" height="24" viewBox="0 0 200 200" xmlns="http://www.w3.org/2000/svg"><defs><style>@font-face{font-family:ifont;src:url(//at.alicdn.com/t/font_1442373896_4754455.eot?#iefix) format(&quot;embedded-opentype&quot;),url(//at.alicdn.com/t/font_1442373896_4754455.woff) format(&quot;woff&quot;),url(//at.alicdn.com/t/font_1442373896_4754455.ttf) format(&quot;truetype&quot;),url(//at.alicdn.com/t/font_1442373896_4754455.svg#ifont) format(&quot;svg&quot;)}</style></defs><path d="M129.007 133.373a4.48 4.48 0 0 1-3.184-1.309L66.868 73.12a4.505 4.505 0 0 1 6.37-6.37l58.954 58.945a4.505 4.505 0 0 1 0 6.37 4.48 4.48 0 0 1-3.185 1.308zm-58.954 0a4.479 4.479 0 0 1-3.185-1.309 4.504 4.504 0 0 1 0-6.369l58.955-58.945a4.505 4.505 0 0 1 6.369 6.37l-58.954 58.944a4.481 4.481 0 0 1-3.185 1.31zm29.482 53.376c-48.16 0-87.352-39.182-87.352-87.352 0-48.16 39.192-87.347 87.352-87.347 48.16 0 87.352 39.187 87.352 87.347 0 48.17-39.192 87.352-87.352 87.352zm0-165.692c-43.197 0-78.345 35.143-78.345 78.34 0 43.198 35.148 78.346 78.345 78.346 43.197 0 78.345-35.148 78.345-78.345 0-43.198-35.148-78.341-78.345-78.341z" fill="#fff" class="transform-group"/></svg>